<svg width="1200" height="420" viewBox="0 0 1200 420" fill="none" xmlns="http://www.w3.org/2000/svg" font-family="-apple-system, BlinkMacSystemFont, 'Segoe UI', Roboto, Helvetica, Arial, sans-serif">
  <defs>
    <linearGradient id="accent" x1="0" y1="0" x2="1" y2="1">
      <stop offset="0" stop-color="#6366F1"/>
      <stop offset="1" stop-color="#06B6D4"/>
    </linearGradient>
    <marker id="arrow" markerWidth="12" markerHeight="12" refX="8" refY="5" orient="auto">
      <path d="M0 0 L9 5 L0 10 z" fill="#06B6D4"/>
    </marker>
  </defs>

  <rect width="1200" height="420" rx="18" fill="#F8FAFC"/>
  <text x="600" y="46" text-anchor="middle" font-size="22" font-weight="800" fill="#0F172A">Three-process architecture</text>
  <text x="600" y="72" text-anchor="middle" font-size="14" fill="#64748B">Renderer talks to Main only through a typed IPC bridge &#8212; the database is never touched directly</text>

  <!-- Renderer -->
  <g transform="translate(40, 110)">
    <rect width="240" height="250" rx="14" fill="#EEF2FF" stroke="#C7D2FE"/>
    <rect width="240" height="44" rx="14" fill="#6366F1"/>
    <rect y="22" width="240" height="22" fill="#6366F1"/>
    <text x="120" y="29" text-anchor="middle" font-size="16" font-weight="700" fill="#fff">Renderer</text>
    <text x="120" y="74" text-anchor="middle" font-size="12" fill="#6366F1" font-weight="600">React 19 &#8226; TanStack</text>
    <g font-size="13" fill="#334155">
      <rect x="20" y="92" width="200" height="32" rx="8" fill="#fff" stroke="#E2E8F0"/>
      <text x="34" y="113" font-weight="600">Pages / Layouts</text>
      <rect x="20" y="132" width="200" height="32" rx="8" fill="#fff" stroke="#E2E8F0"/>
      <text x="34" y="153" font-weight="600">Atomic components</text>
      <rect x="20" y="172" width="200" height="32" rx="8" fill="#fff" stroke="#E2E8F0"/>
      <text x="34" y="193" font-weight="600">Query hooks / Zustand</text>
      <rect x="20" y="212" width="200" height="22" rx="6" fill="#EEF2FF"/>
      <text x="120" y="227" text-anchor="middle" font-size="11" fill="#6366F1">chromium &#8226; jsdom tests</text>
    </g>
  </g>

  <!-- Preload -->
  <g transform="translate(360, 150)">
    <rect width="200" height="170" rx="14" fill="#ECFEFF" stroke="#A5F3FC"/>
    <rect width="200" height="44" rx="14" fill="#06B6D4"/>
    <rect y="22" width="200" height="22" fill="#06B6D4"/>
    <text x="100" y="29" text-anchor="middle" font-size="16" font-weight="700" fill="#fff">Preload</text>
    <text x="100" y="76" text-anchor="middle" font-size="13" font-weight="700" fill="#0E7490">window.callApi</text>
    <text x="100" y="104" text-anchor="middle" font-size="12" fill="#155E75">typed IPC bridge</text>
    <text x="100" y="124" text-anchor="middle" font-size="12" fill="#155E75">contextIsolation</text>
    <rect x="24" y="138" width="152" height="20" rx="6" fill="#CFFAFE"/>
    <text x="100" y="152" text-anchor="middle" font-size="11" fill="#0E7490">request / response</text>
  </g>

  <!-- Main -->
  <g transform="translate(640, 110)">
    <rect width="260" height="250" rx="14" fill="#EEF2FF" stroke="#C7D2FE"/>
    <rect width="260" height="44" rx="14" fill="#4F46E5"/>
    <rect y="22" width="260" height="22" fill="#4F46E5"/>
    <text x="130" y="29" text-anchor="middle" font-size="16" font-weight="700" fill="#fff">Main process</text>
    <g font-size="13" fill="#334155">
      <rect x="20" y="60" width="220" height="34" rx="8" fill="#fff" stroke="#E2E8F0"/>
      <text x="34" y="82" font-weight="600">IPC Handlers</text>
      <rect x="20" y="102" width="220" height="34" rx="8" fill="#fff" stroke="#E2E8F0"/>
      <text x="34" y="124" font-weight="600">RepositoryContainer (DI)</text>
      <rect x="20" y="144" width="220" height="34" rx="8" fill="#fff" stroke="#E2E8F0"/>
      <text x="34" y="166" font-weight="600">Repositories (Drizzle)</text>
      <rect x="20" y="186" width="220" height="34" rx="8" fill="#fff" stroke="#E2E8F0"/>
      <text x="34" y="208" font-weight="600">DB Adapter + WorkspaceMgr</text>
    </g>
  </g>

  <!-- DB -->
  <g transform="translate(980, 150)">
    <rect width="180" height="170" rx="14" fill="#F0FDFA" stroke="#99F6E4"/>
    <g stroke="#0D9488" stroke-width="2.5" fill="#CCFBF1" transform="translate(90, 90)">
      <ellipse cx="0" cy="-44" rx="46" ry="15"/>
      <path d="M-46 -44 V 44 a46 15 0 0 0 92 0 V -44"/>
      <path d="M-46 -14 a46 15 0 0 0 92 0" fill="none"/>
      <path d="M-46 14 a46 15 0 0 0 92 0" fill="none"/>
    </g>
    <text x="90" y="36" text-anchor="middle" font-size="14" font-weight="700" fill="#0F766E">Your Database</text>
    <text x="90" y="162" text-anchor="middle" font-size="12" fill="#0D9488" font-weight="600">PostgreSQL / MySQL 8</text>
  </g>

  <!-- arrows -->
  <g stroke="#06B6D4" stroke-width="3" marker-end="url(#arrow)">
    <line x1="284" y1="235" x2="356" y2="235"/>
    <line x1="564" y1="235" x2="636" y2="235"/>
    <line x1="904" y1="235" x2="976" y2="235"/>
  </g>
  <g font-size="11" fill="#0E7490" font-weight="600" text-anchor="middle">
    <text x="320" y="225">invoke</text>
    <text x="600" y="225">IPC</text>
    <text x="940" y="225">SQL</text>
  </g>
</svg>
