<svg width="1280" height="400" viewBox="0 0 1280 400" fill="none" xmlns="http://www.w3.org/2000/svg" font-family="-apple-system, BlinkMacSystemFont, 'Segoe UI', Roboto, Helvetica, Arial, sans-serif">
  <defs>
    <linearGradient id="bg" x1="0" y1="0" x2="1280" y2="400" gradientUnits="userSpaceOnUse">
      <stop offset="0" stop-color="#0F172A"/>
      <stop offset="0.55" stop-color="#1E1B4B"/>
      <stop offset="1" stop-color="#083344"/>
    </linearGradient>
    <linearGradient id="accent" x1="0" y1="0" x2="1" y2="1">
      <stop offset="0" stop-color="#6366F1"/>
      <stop offset="1" stop-color="#06B6D4"/>
    </linearGradient>
    <radialGradient id="glow" cx="0.5" cy="0.5" r="0.5">
      <stop offset="0" stop-color="#06B6D4" stop-opacity="0.45"/>
      <stop offset="1" stop-color="#06B6D4" stop-opacity="0"/>
    </radialGradient>
    <filter id="soft" x="-20%" y="-20%" width="140%" height="140%">
      <feGaussianBlur stdDeviation="6"/>
    </filter>
  </defs>

  <rect width="1280" height="400" rx="20" fill="url(#bg)"/>

  <!-- dotted grid texture -->
  <g fill="#38BDF8" opacity="0.10">
    <circle cx="120" cy="60" r="2"/><circle cx="180" cy="60" r="2"/><circle cx="240" cy="60" r="2"/>
    <circle cx="120" cy="120" r="2"/><circle cx="180" cy="120" r="2"/><circle cx="240" cy="120" r="2"/>
    <circle cx="120" cy="180" r="2"/><circle cx="180" cy="180" r="2"/><circle cx="240" cy="180" r="2"/>
    <circle cx="1040" cy="280" r="2"/><circle cx="1100" cy="280" r="2"/><circle cx="1160" cy="280" r="2"/>
    <circle cx="1040" cy="340" r="2"/><circle cx="1100" cy="340" r="2"/><circle cx="1160" cy="340" r="2"/>
  </g>

  <!-- ====== Hydra motif: a database core with three serpent heads ====== -->
  <g transform="translate(940, 200)">
    <circle cx="0" cy="0" r="150" fill="url(#glow)"/>

    <!-- central DB cylinder (the shared body) -->
    <g stroke="url(#accent)" stroke-width="3" fill="#0B1220">
      <ellipse cx="0" cy="-30" rx="46" ry="16"/>
      <path d="M-46 -30 V 40 a46 16 0 0 0 92 0 V -30" fill="#0B1220"/>
      <path d="M-46 0 a46 16 0 0 0 92 0" fill="none"/>
      <path d="M-46 -30 a46 16 0 0 0 92 0" fill="none"/>
    </g>

    <!-- three necks rising from the core (the heads of the hydra) -->
    <g fill="none" stroke="url(#accent)" stroke-width="7" stroke-linecap="round">
      <path d="M-18 -34 C -70 -90, -120 -70, -118 -120"/>
      <path d="M0 -40 C 0 -120, 10 -130, 4 -168"/>
      <path d="M18 -34 C 70 -90, 120 -70, 118 -120"/>
    </g>
    <!-- heads as glowing nodes -->
    <g>
      <circle cx="-118" cy="-122" r="13" fill="#22D3EE"/>
      <circle cx="4" cy="-170" r="13" fill="#818CF8"/>
      <circle cx="118" cy="-122" r="13" fill="#22D3EE"/>
      <circle cx="-118" cy="-122" r="22" fill="none" stroke="#22D3EE" stroke-opacity="0.4" stroke-width="2"/>
      <circle cx="4" cy="-170" r="22" fill="none" stroke="#818CF8" stroke-opacity="0.4" stroke-width="2"/>
      <circle cx="118" cy="-122" r="22" fill="none" stroke="#22D3EE" stroke-opacity="0.4" stroke-width="2"/>
    </g>
  </g>

  <!-- ====== Wordmark + tagline ====== -->
  <g transform="translate(96, 150)">
    <text x="0" y="0" font-size="92" font-weight="800" fill="#F8FAFC" letter-spacing="-2">Hydra</text>
    <rect x="2" y="22" width="118" height="6" rx="3" fill="url(#accent)"/>
    <text x="0" y="70" font-size="27" font-weight="600" fill="#CBD5E1">Lightweight project &amp; issue management,</text>
    <text x="0" y="106" font-size="27" font-weight="600" fill="#CBD5E1">offline-first &#8226; multi-workspace &#8226; bring-your-own-DB.</text>

    <g transform="translate(0, 150)" font-size="15" font-weight="600">
      <g>
        <rect x="0" y="0" width="116" height="34" rx="17" fill="#1E293B" stroke="#334155"/>
        <text x="58" y="22" text-anchor="middle" fill="#93C5FD">Electron</text>
      </g>
      <g transform="translate(128,0)">
        <rect x="0" y="0" width="118" height="34" rx="17" fill="#1E293B" stroke="#334155"/>
        <text x="59" y="22" text-anchor="middle" fill="#67E8F9">React 19</text>
      </g>
      <g transform="translate(258,0)">
        <rect x="0" y="0" width="142" height="34" rx="17" fill="#1E293B" stroke="#334155"/>
        <text x="71" y="22" text-anchor="middle" fill="#A5B4FC">TypeScript</text>
      </g>
      <g transform="translate(412,0)">
        <rect x="0" y="0" width="184" height="34" rx="17" fill="#1E293B" stroke="#334155"/>
        <text x="92" y="22" text-anchor="middle" fill="#7DD3FC">PostgreSQL / MySQL</text>
      </g>
    </g>
  </g>
</svg>
